1.9Hzhigh3min_grf.mot
version=1
nRows=15
nColumns 19
inDegrees=yes
endheader
time	1_ground_force_vx	1_ground_force_vy	1_ground_force_vz	1_ground_force_px	1_ground_force_py	1_ground_force_pz	1_ground_torque_x	1_ground_torque_y	1_ground_torque_z	2_ground_force_vx	2_ground_force_vy	2_ground_force_vz	2_ground_force_px	2_ground_force_py	2_ground_force_pz	2_ground_torque_x	2_ground_torque_y	2_ground_torque_z
            0.005000	            0.186635	            2.697533	            1.524384	           -0.246887	            0.006249	           -0.412079	           -0.310664	           -0.193308	           -0.161518	            0.892690	           -0.911168	           -1.786932	           -0.369880	            0.004889	           -0.625016	           -0.187854	           -0.000678	            0.000080
            0.005500	            0.415997	            2.517115	            1.568899	           -0.246887	            0.006249	           -0.412079	           -0.349997	           -0.082368	           -0.132366	            0.604362	            1.112780	           -1.591872	           -0.369880	            0.004889	           -0.625016	           -0.131683	            0.037739	           -0.112910
            0.006000	            0.415658	            1.256238	            1.334208	           -0.246887	            0.006249	           -0.412079	           -0.358078	            0.120735	           -0.075036	            0.749625	           -0.176253	           -1.455747	           -0.369880	            0.004889	           -0.625016	           -0.169236	            0.019102	           -0.226063
            0.006500	            0.644595	            2.157807	            1.291648	           -0.246887	            0.006249	           -0.412079	           -0.281704	            0.231936	           -0.102604	            0.936381	            0.008404	           -1.408242	           -0.369880	            0.004889	           -0.625016	           -0.244464	            0.056238	           -0.112795
            0.007000	            0.278192	            2.157146	            1.430126	           -0.246887	            0.006249	           -0.412079	           -0.287633	            0.111687	           -0.137540	            0.932996	            0.929648	           -1.545741	           -0.369880	            0.004889	           -0.625016	           -0.093968	           -0.000003	           -0.094211
            0.007500	            0.277914	            3.058671	            1.388135	           -0.246887	            0.006249	           -0.412079	           -0.380185	           -0.026822	           -0.175533	            0.793337	            0.743151	           -1.030129	           -0.369880	            0.004889	           -0.625016	           -0.244363	            0.037063	           -0.037462
            0.008000	            0.553574	            2.877476	            1.615959	           -0.246887	            0.006249	           -0.412079	           -0.502184	           -0.202738	           -0.070259	            0.841311	            0.376697	           -1.500744	           -0.369880	            0.004889	           -0.625016	           -0.169033	           -0.019247	           -0.075396
            0.008500	            0.416470	            1.795462	            1.703374	           -0.246887	            0.006249	           -0.412079	           -0.336602	           -0.221012	           -0.132968	            0.887558	            0.560513	           -1.359322	           -0.369880	            0.004889	           -0.625016	           -0.263054	            0.008705	           -0.056405
            0.009000	            0.461433	            2.878245	            1.432763	           -0.246887	            0.006249	           -0.412079	           -0.306727	           -0.045531	           -0.092778	            0.931002	            1.482093	           -1.543769	           -0.369880	            0.004889	           -0.625016	           -0.206774	            0.027881	           -0.075212
            0.009500	            0.324101	            1.796624	            1.428466	           -0.246887	            0.006249	           -0.412079	           -0.362163	            0.138860	           -0.003685	            0.841352	            0.376363	           -1.406888	           -0.369880	            0.004889	           -0.625016	           -0.207004	            0.084799	           -0.131560
            0.010000	            0.323921	            2.157352	            1.384157	           -0.246887	            0.006249	           -0.412079	           -0.285786	            0.222789	           -0.172710	            0.604362	            1.112780	           -1.591872	           -0.369880	            0.004889	           -0.625016	           -0.225500	            0.008975	           -0.094121
            0.010500	            0.231600	            2.518849	            1.156650	           -0.246887	            0.006249	           -0.412079	           -0.313724	            0.084002	           -0.158360	            0.842037	            0.192047	           -1.360617	           -0.369880	            0.004889	           -0.625016	           -0.263010	           -0.009999	           -0.113023
            0.011000	            0.231795	            2.698721	            1.249135	           -0.246887	            0.006249	           -0.412079	           -0.355034	           -0.064300	           -0.064909	            0.793132	            0.744825	           -1.499410	           -0.369880	            0.004889	           -0.625016	           -0.225303	           -0.047674	           -0.113174
            0.011500	            0.507536	            2.697595	            1.523588	           -0.246887	            0.006249	           -0.412079	           -0.291718	           -0.193398	           -0.091488	            0.516685	           -0.545228	           -1.503890	           -0.369880	            0.004889	           -0.625016	           -0.150248	           -0.019179	           -0.075404
            0.012000	            0.369764	            2.157361	            1.384043	           -0.246887	            0.006249	           -0.412079	           -0.379431	           -0.165672	           -0.115794	            0.888181	            0.376699	           -1.453836	           -0.369880	            0.004889	           -0.625016	           -0.187996	            0.018832	           -0.169504
